<svg xmlns="http://www.w3.org/2000/svg" viewBox="0 0 120 120" width="120" height="120">
	<defs>
		<radialGradient id="daisy-center" cx="50%" cy="50%" r="50%">
			<stop offset="0%" stop-color="#fff3cc"/>
			<stop offset="60%" stop-color="#ffd36e"/>
			<stop offset="100%" stop-color="#ffcc40"/>
		</radialGradient>
		<linearGradient id="daisy-petal" x1="0" x2="1">
			<stop offset="0%" stop-color="#ffffff" />
			<stop offset="100%" stop-color="#fff8f0" />
		</linearGradient>
	</defs>
	<g fill="none" stroke-linecap="round" stroke-linejoin="round">
		<circle cx="60" cy="60" r="12" fill="url(#daisy-center)"/>
		<g fill="url(#daisy-petal)" stroke="#ffeecd" stroke-width="0.8">
			<path d="M60 20 C68 30, 68 30, 60 40 C52 30, 52 30, 60 20 Z" transform="translate(0,0) rotate(0 60 60)"/>
			<path d="M60 20 C68 30, 68 30, 60 40 C52 30, 52 30, 60 20 Z" transform="translate(0,0) rotate(45 60 60)"/>
			<path d="M60 20 C68 30, 68 30, 60 40 C52 30, 52 30, 60 20 Z" transform="translate(0,0) rotate(90 60 60)"/>
			<path d="M60 20 C68 30, 68 30, 60 40 C52 30, 52 30, 60 20 Z" transform="translate(0,0) rotate(135 60 60)"/>
			<path d="M60 20 C68 30, 68 30, 60 40 C52 30, 52 30, 60 20 Z" transform="translate(0,0) rotate(180 60 60)"/>
			<path d="M60 20 C68 30, 68 30, 60 40 C52 30, 52 30, 60 20 Z" transform="translate(0,0) rotate(225 60 60)"/>
			<path d="M60 20 C68 30, 68 30, 60 40 C52 30, 52 30, 60 20 Z" transform="translate(0,0) rotate(270 60 60)"/>
			<path d="M60 20 C68 30, 68 30, 60 40 C52 30, 52 30, 60 20 Z" transform="translate(0,0) rotate(315 60 60)"/>
		</g>
	</g>
</svg>
