<svg xmlns="http://www.w3.org/2000/svg" viewBox="0 0 120 120" width="120" height="120">
  <defs>
    <radialGradient id="sunPetal" cx="50%" cy="50%">
      <stop offset="0%" stop-color="#fff59d"/>
      <stop offset="80%" stop-color="#ffd36e"/>
    </radialGradient>
  </defs>
  <g>
    <circle cx="60" cy="60" r="14" fill="#6b3f2b" />
    <g fill="url(#sunPetal)">
      <path d="M60 6 L64 28 L60 34 L56 28 Z" transform="rotate(0 60 60)" />
      <path d="M60 6 L64 28 L60 34 L56 28 Z" transform="rotate(45 60 60)" />
      <path d="M60 6 L64 28 L60 34 L56 28 Z" transform="rotate(90 60 60)" />
      <path d="M60 6 L64 28 L60 34 L56 28 Z" transform="rotate(135 60 60)" />
      <path d="M60 6 L64 28 L60 34 L56 28 Z" transform="rotate(180 60 60)" />
      <path d="M60 6 L64 28 L60 34 L56 28 Z" transform="rotate(225 60 60)" />
      <path d="M60 6 L64 28 L60 34 L56 28 Z" transform="rotate(270 60 60)" />
      <path d="M60 6 L64 28 L60 34 L56 28 Z" transform="rotate(315 60 60)" />
    </g>
  </g>
</svg>